<?xml version="1.0" encoding="UTF-8" standalone="no"?><!DOCTYPE svg PUBLIC "-//W3C//DTD SVG 1.1//EN" "http://www.w3.org/Graphics/SVG/1.1/DTD/svg11.dtd"><svg width="100%" height="100%" viewBox="0 0 10 16" version="1.1" xmlns="http://www.w3.org/2000/svg" xmlns:xlink="http://www.w3.org/1999/xlink" xml:space="preserve" xmlns:serif="http://www.serif.com/" style="fill-rule:evenodd;clip-rule:evenodd;stroke-linejoin:round;stroke-miterlimit:1.41421;"><path d="M9,0l-8,0c-0.55,0 -1,0.45 -1,1l0,14c0,0.55 0.45,1 1,1l8,0c0.55,0 1,-0.45 1,-1l0,-14c0,-0.55 -0.45,-1 -1,-1Zm-4,15.3c-0.72,0 -1.3,-0.58 -1.3,-1.3c0,-0.72 0.58,-1.3 1.3,-1.3c0.72,0 1.3,0.58 1.3,1.3c0,0.72 -0.58,1.3 -1.3,1.3Zm4,-3.3l-8,0l0,-10l8,0l0,10Z" style="fill:#fff;"/></svg>