<?xml version="1.0" encoding="UTF-8" standalone="no"?><!DOCTYPE svg PUBLIC "-//W3C//DTD SVG 1.1//EN" "http://www.w3.org/Graphics/SVG/1.1/DTD/svg11.dtd"><svg width="100%" height="100%" viewBox="0 0 9 11" version="1.1" xmlns="http://www.w3.org/2000/svg" xmlns:xlink="http://www.w3.org/1999/xlink" xml:space="preserve" xmlns:serif="http://www.serif.com/" style="fill-rule:evenodd;clip-rule:evenodd;stroke-linejoin:round;stroke-miterlimit:1.41421;"><path d="M9,9.752c0,0.41 -0.338,0.748 -0.748,0.748l-7.501,0c0,0 -0.001,0 -0.001,0c-0.411,0 -0.75,-0.339 -0.75,-0.75c0,0 0,0 0,-0.001l0,-0.749c0,-1.975 3,-3 3,-3c0,0 0.172,-0.307 0,-0.75c-0.631,-0.465 -0.708,-1.192 -0.75,-3c0.13,-1.81 1.4,-2.25 2.25,-2.25c0.85,0 2.12,0.439 2.25,2.25c-0.042,1.808 -0.119,2.535 -0.75,3c-0.172,0.442 0,0.75 0,0.75c0,0 3,1.025 3,3l0,0.752Z" style="fill:#fff;"/></svg>