<?xml version="1.0" encoding="UTF-8" standalone="no"?><!DOCTYPE svg PUBLIC "-//W3C//DTD SVG 1.1//EN" "http://www.w3.org/Graphics/SVG/1.1/DTD/svg11.dtd"><svg width="100%" height="100%" viewBox="0 0 11 6" version="1.1" xmlns="http://www.w3.org/2000/svg" xmlns:xlink="http://www.w3.org/1999/xlink" xml:space="preserve" xmlns:serif="http://www.serif.com/" style="fill-rule:evenodd;clip-rule:evenodd;stroke-linejoin:round;stroke-miterlimit:1.41421;"><path d="M8.145,2.25c-0.337,-1.29 -1.5,-2.25 -2.895,-2.25c-1.395,0 -2.558,0.96 -2.895,2.25l-2.355,0l0,1.5l2.355,0c0.338,1.29 1.5,2.25 2.895,2.25c1.395,0 2.558,-0.96 2.895,-2.25l2.355,0l0,-1.5l-2.355,0Zm-2.895,2.4c-0.915,0 -1.65,-0.735 -1.65,-1.65c0,-0.915 0.735,-1.65 1.65,-1.65c0.915,0 1.65,0.735 1.65,1.65c0,0.915 -0.735,1.65 -1.65,1.65Z" style="fill:#fff;"/></svg>